<svg xmlns="http://www.w3.org/2000/svg" viewBox="0 0 64 64" role="img" aria-label="SmartAddict ML logo">
  <defs>
    <linearGradient id="sa-blue" x1="10" y1="8" x2="54" y2="56" gradientUnits="userSpaceOnUse">
      <stop offset="0" stop-color="#00bcd4"/>
      <stop offset="0.62" stop-color="#1c69d4"/>
      <stop offset="1" stop-color="#e22718"/>
    </linearGradient>
    <filter id="sa-glow" x="-40%" y="-40%" width="180%" height="180%">
      <feGaussianBlur stdDeviation="1.6" result="blur"/>
      <feColorMatrix in="blur" type="matrix" values="0 0 0 0 0  0 0 0 0 0.74  0 0 0 0 0.83  0 0 0 0.8 0"/>
      <feMerge>
        <feMergeNode/>
        <feMergeNode in="SourceGraphic"/>
      </feMerge>
    </filter>
  </defs>

  <rect x="3" y="3" width="58" height="58" rx="15" fill="#050505" stroke="url(#sa-blue)" stroke-width="3"/>
  <path d="M13 34c7-14 25-18 38-7" fill="none" stroke="#00bcd4" stroke-width="2.2" stroke-linecap="round" opacity="0.45"/>
  <path d="M51 30c-7 14-25 18-38 7" fill="none" stroke="#1c69d4" stroke-width="2.2" stroke-linecap="round" opacity="0.45"/>

  <g filter="url(#sa-glow)">
    <rect x="20" y="11" width="24" height="42" rx="6" fill="#0c0c0c" stroke="url(#sa-blue)" stroke-width="3"/>
    <path d="M29 16h6" stroke="#9befff" stroke-width="2" stroke-linecap="round" opacity="0.75"/>
    <path d="M27 27l8-5 4 8-7 7-6-6" fill="none" stroke="#00bcd4" stroke-width="2.2" stroke-linecap="round" stroke-linejoin="round"/>
    <path d="M35 22l6 2M39 30l-2 10M32 37l-5 7" fill="none" stroke="#1c69d4" stroke-width="2" stroke-linecap="round"/>
    <circle cx="27" cy="27" r="3.2" fill="#00bcd4"/>
    <circle cx="35" cy="22" r="3.2" fill="#1c69d4"/>
    <circle cx="39" cy="30" r="3.2" fill="#e22718"/>
    <circle cx="32" cy="37" r="3.2" fill="#00bcd4"/>
    <circle cx="27" cy="44" r="2.8" fill="#1c69d4"/>
  </g>
</svg>
